<?xml version="1.0" encoding="utf-8"?>
<svg width="17.317032px" height="14.56665px" viewBox="0 0 17.317032 14.56665" version="1.1" xmlns:xlink="http://www.w3.org/1999/xlink" xmlns="http://www.w3.org/2000/svg">
  <path d="M3.33019 0C2.96254 0 2.66415 0.283733 2.66415 0.633333C2.66415 0.982933 2.96254 1.26667 3.33019 1.26667L5.99436 1.26667C6.36201 1.26667 6.6604 0.982933 6.6604 0.633333C6.6604 0.283733 6.36201 0 5.99436 0L3.33019 0L3.33019 0ZM11.3227 0C10.9551 0 10.6567 0.283733 10.6567 0.633333C10.6567 0.982933 10.9551 1.26667 11.3227 1.26667L13.9869 1.26667C14.3545 1.26667 14.6529 0.982933 14.6529 0.633333C14.6529 0.283733 14.3545 0 13.9869 0L11.3227 0L11.3227 0ZM2.66419 2.53333C2.29654 2.53333 1.99815 2.81706 1.99815 3.16666L1.99815 5.06666C1.26218 5.06666 0.666071 5.63349 0.666071 6.33333L0.666071 12.0333L7.32648 12.0333L7.32648 7.59999L9.99064 7.59999L9.99064 12.0333L16.651 12.0333L16.651 6.33333C16.651 5.63349 16.0549 5.06666 15.319 5.06666L15.319 3.16666C15.319 2.81706 15.0206 2.53333 14.6529 2.53333L10.6567 2.53333C10.289 2.53333 9.99064 2.81706 9.99064 3.16666L9.99064 5.06666L7.32648 5.06666L7.32648 3.16666C7.32648 2.81706 7.02809 2.53333 6.66044 2.53333L2.66419 2.53333L2.66419 2.53333ZM0.666041 13.3C0.298386 13.3 0 13.5837 0 13.9333C0 14.2829 0.298386 14.5667 0.666041 14.5667L7.32645 14.5667C7.6941 14.5667 7.99249 14.2829 7.99249 13.9333C7.99249 13.5837 7.6941 13.3 7.32645 13.3L0.666041 13.3L0.666041 13.3ZM9.99058 13.3C9.62292 13.3 9.32454 13.5837 9.32454 13.9333C9.32454 14.2829 9.62292 14.5667 9.99058 14.5667L16.651 14.5667C17.0186 14.5667 17.317 14.2829 17.317 13.9333C17.317 13.5837 17.0186 13.3 16.651 13.3L9.99058 13.3L9.99058 13.3Z" id="Shape" fill="#FF5E27" fill-rule="evenodd" stroke="none" />
</svg>